<svg width="36" height="36" viewBox="0 0 36 36" fill="none" xmlns="http://www.w3.org/2000/svg">
<circle cx="18" cy="18" r="18" fill="white"/>
<path fill-rule="evenodd" clip-rule="evenodd" d="M22.2065 0.494178L15.0568 10.7044C15.0409 10.7269 15.0295 10.7524 15.0234 10.7794C15.0173 10.8064 15.0166 10.8343 15.0213 10.8616C15.0261 10.8888 15.0361 10.9148 15.0509 10.9382C15.0657 10.9616 15.085 10.9818 15.1076 10.9977L26.8626 19.2284C26.8853 19.2445 26.9109 19.2559 26.9381 19.262C26.9652 19.2681 26.9933 19.2688 27.0207 19.264C27.048 19.2591 27.0742 19.2489 27.0976 19.2339C27.121 19.2189 27.1412 19.1994 27.157 19.1765L33.8974 9.55005C35.2394 12.0697 36 14.946 36 18C36 27.9411 27.9411 36 18 36C8.05887 36 0 27.9411 0 18C0 8.05887 8.05887 0 18 0C19.4485 0 20.857 0.171095 22.2065 0.494178ZM19.9609 23.2711L26.0289 20.5436C26.1386 20.494 26.1524 20.345 26.0543 20.2758L14.3998 12.1166C14.3774 12.101 14.3513 12.0917 14.3241 12.0895C14.297 12.0873 14.2697 12.0923 14.2451 12.104C14.2205 12.1157 14.1994 12.1337 14.184 12.1562C14.1686 12.1787 14.1594 12.2049 14.1573 12.232L13.67 18.8659L12.6677 20.2792C12.6444 20.313 12.6353 20.3546 12.6424 20.395C12.6495 20.4354 12.6723 20.4714 12.7058 20.4952L18.7519 24.7295C18.7686 24.7412 18.7874 24.7495 18.8073 24.7539C18.8272 24.7584 18.8477 24.7588 18.8678 24.7553C18.8878 24.7517 18.907 24.7443 18.9242 24.7333C18.9413 24.7223 18.9562 24.7081 18.9678 24.6914L19.9609 23.2711ZM17.4309 25.6071L16.5106 26.9234C16.4644 26.9777 16.387 26.9962 16.3224 26.9962L9.10545 26.9996C9.08263 26.992 9.06191 26.9791 9.04494 26.962C9.02798 26.9449 9.01524 26.9241 9.00772 26.9012C9.00021 26.8784 8.99814 26.8541 9.00168 26.8302C9.00521 26.8064 9.01425 26.7838 9.02808 26.7641L12.3398 22.0425C12.3514 22.0257 12.3663 22.0115 12.3834 22.0005C12.4006 21.9896 12.4198 21.9821 12.4398 21.9786C12.4599 21.975 12.4805 21.9755 12.5004 21.9799C12.5202 21.9843 12.5391 21.9926 12.5557 22.0044L17.394 25.3923C17.4632 25.4408 17.4794 25.5378 17.4309 25.6071Z" fill="url(#paint0_linear_367_91)"/>
<defs>
<linearGradient id="paint0_linear_367_91" x1="5.625" y1="5.625" x2="30.375" y2="30.375" gradientUnits="userSpaceOnUse">
<stop stop-color="#00C3CC"/>
<stop offset="1" stop-color="#438DFF"/>
</linearGradient>
</defs>
</svg>
